<mxfile host="app.diagrams.net" modified="2024-03-25T08:41:14.120Z" agent="Mozilla/5.0 (Windows NT 10.0; Win64; x64) AppleWebKit/537.36 (KHTML, like Gecko) Chrome/122.0.0.0 Safari/537.36" etag="U3ghnPCYkTVIxhocziLz" version="24.1.0" type="github">
  <diagram name="第 1 页" id="Y6xY_8anBtdgjpaCUC3Q">
    <mxGraphModel dx="993" dy="568" grid="1" gridSize="10" guides="1" tooltips="1" connect="1" arrows="1" fold="1" page="1" pageScale="1" pageWidth="2339" pageHeight="3300" math="0" shadow="0">
      <root>
        <mxCell id="0" />
        <mxCell id="1" parent="0" />
        <mxCell id="gSltfRQLhsjH3o0JYE8w-63" value="外框" parent="0" />
        <mxCell id="gSltfRQLhsjH3o0JYE8w-64" value="" style="rounded=0;whiteSpace=wrap;html=1;align=center;verticalAlign=middle;fontFamily=Times New Roman;fontSize=16;fontColor=default;fillColor=none;gradientColor=none;container=0;" vertex="1" parent="gSltfRQLhsjH3o0JYE8w-63">
          <mxGeometry x="600" y="80" width="560" height="1445" as="geometry" />
        </mxCell>
        <mxCell id="gSltfRQLhsjH3o0JYE8w-65" value="CcspCommonLibrary" style="rounded=0;whiteSpace=wrap;html=1;align=center;verticalAlign=middle;fontFamily=Times New Roman;fontSize=16;fontColor=default;fillColor=none;gradientColor=none;container=0;" vertex="1" parent="gSltfRQLhsjH3o0JYE8w-63">
          <mxGeometry x="600" y="80" width="560" height="38.64" as="geometry" />
        </mxCell>
        <mxCell id="gSltfRQLhsjH3o0JYE8w-66" value="" style="rounded=0;whiteSpace=wrap;html=1;align=center;verticalAlign=middle;fontFamily=Times New Roman;fontSize=16;fontColor=default;fillColor=none;gradientColor=none;container=0;" vertex="1" parent="gSltfRQLhsjH3o0JYE8w-63">
          <mxGeometry x="40" y="80" width="560" height="1445" as="geometry" />
        </mxCell>
        <mxCell id="gSltfRQLhsjH3o0JYE8w-67" value="CcspEthAgent" style="rounded=0;whiteSpace=wrap;html=1;align=center;verticalAlign=middle;fontFamily=Times New Roman;fontSize=16;fontColor=default;fillColor=none;gradientColor=none;container=0;" vertex="1" parent="gSltfRQLhsjH3o0JYE8w-63">
          <mxGeometry x="40" y="80" width="560" height="38.64" as="geometry" />
        </mxCell>
        <mxCell id="gSltfRQLhsjH3o0JYE8w-118" value="" style="rounded=0;whiteSpace=wrap;html=1;align=center;verticalAlign=middle;fontFamily=Times New Roman;fontSize=16;fontColor=default;fillColor=none;gradientColor=none;container=0;" vertex="1" parent="gSltfRQLhsjH3o0JYE8w-63">
          <mxGeometry x="1257.5" y="60" width="287.5" height="960" as="geometry" />
        </mxCell>
        <mxCell id="gSltfRQLhsjH3o0JYE8w-119" value="NotifyComponent" style="rounded=0;whiteSpace=wrap;html=1;align=center;verticalAlign=middle;fontFamily=Times New Roman;fontSize=16;fontColor=default;fillColor=none;gradientColor=none;container=0;" vertex="1" parent="gSltfRQLhsjH3o0JYE8w-63">
          <mxGeometry x="1257.5" y="60" width="287.5" height="43.63636363636364" as="geometry" />
        </mxCell>
        <mxCell id="gSltfRQLhsjH3o0JYE8w-120" value="StateInfoManager" style="rounded=0;whiteSpace=wrap;html=1;align=center;verticalAlign=middle;fontFamily=Times New Roman;fontSize=16;fontColor=default;fillColor=none;gradientColor=none;container=0;" vertex="1" parent="gSltfRQLhsjH3o0JYE8w-63">
          <mxGeometry x="1545" y="60" width="287.5" height="43.63636363636364" as="geometry" />
        </mxCell>
        <mxCell id="gSltfRQLhsjH3o0JYE8w-69" value="Code Flow" parent="0" />
        <mxCell id="gSltfRQLhsjH3o0JYE8w-73" value="&lt;font color=&quot;#ff0000&quot; style=&quot;font-size: 16px;&quot;&gt;CCSP_Message_Bus_Send_Msg&lt;/font&gt;&lt;div&gt;&lt;font style=&quot;font-size: 16px;&quot;&gt;(...)&lt;/font&gt;&lt;/div&gt;" style="rounded=1;whiteSpace=wrap;html=1;align=center;verticalAlign=middle;fontFamily=Times New Roman;fontSize=16;fontColor=default;fillColor=none;gradientColor=none;" vertex="1" parent="gSltfRQLhsjH3o0JYE8w-69">
          <mxGeometry x="639.995" y="1140" width="258.75" height="60" as="geometry" />
        </mxCell>
        <mxCell id="gSltfRQLhsjH3o0JYE8w-74" value="&lt;font style=&quot;font-size: 16px;&quot;&gt;NotifyComponent_&lt;br&gt;SetParamStringValue&lt;/font&gt;" style="rounded=1;whiteSpace=wrap;html=1;align=center;verticalAlign=middle;fontFamily=Times New Roman;fontSize=16;fontColor=default;fillColor=none;gradientColor=none;" vertex="1" parent="gSltfRQLhsjH3o0JYE8w-69">
          <mxGeometry x="1293.4375" y="870" width="215.62499999999997" height="60" as="geometry" />
        </mxCell>
        <mxCell id="gSltfRQLhsjH3o0JYE8w-75" value="SPV" style="endArrow=blockThin;endSize=6;dashed=1;html=1;rounded=0;fontFamily=Times New Roman;fontSize=16;fontColor=default;entryX=0;entryY=0.5;entryDx=0;entryDy=0;endFill=1;" edge="1" parent="gSltfRQLhsjH3o0JYE8w-69" target="gSltfRQLhsjH3o0JYE8w-74">
          <mxGeometry width="160" relative="1" as="geometry">
            <mxPoint x="1170" y="925.8196721311474" as="sourcePoint" />
            <mxPoint x="1271.875" y="950" as="targetPoint" />
            <Array as="points">
              <mxPoint x="1113.75" y="900" />
            </Array>
          </mxGeometry>
        </mxCell>
        <mxCell id="gSltfRQLhsjH3o0JYE8w-76" style="edgeStyle=none;rounded=0;orthogonalLoop=1;jettySize=auto;html=1;exitX=0.5;exitY=1;exitDx=0;exitDy=0;entryX=0.5;entryY=0;entryDx=0;entryDy=0;strokeColor=default;align=center;verticalAlign=middle;fontFamily=Times New Roman;fontSize=16;fontColor=default;labelBackgroundColor=default;endArrow=blockThin;endFill=1;endSize=6;" edge="1" parent="gSltfRQLhsjH3o0JYE8w-69" source="gSltfRQLhsjH3o0JYE8w-77" target="gSltfRQLhsjH3o0JYE8w-114">
          <mxGeometry relative="1" as="geometry" />
        </mxCell>
        <mxCell id="gSltfRQLhsjH3o0JYE8w-77" value="&lt;font color=&quot;#ff0000&quot;&gt;Notify_change&lt;/font&gt;&lt;div&gt;(&lt;font color=&quot;#6666ff&quot;&gt;&lt;b&gt;event_name&lt;/b&gt;&lt;/font&gt;, &lt;font color=&quot;#00cc00&quot;&gt;&lt;b&gt;*new_value&lt;/b&gt;&lt;/font&gt;)&lt;/div&gt;" style="rounded=1;whiteSpace=wrap;html=1;align=center;verticalAlign=middle;fontFamily=Times New Roman;fontSize=16;fontColor=default;fillColor=none;gradientColor=none;" vertex="1" parent="gSltfRQLhsjH3o0JYE8w-69">
          <mxGeometry x="669.995" y="820" width="201.24999999999997" height="60" as="geometry" />
        </mxCell>
        <mxCell id="gSltfRQLhsjH3o0JYE8w-78" value="" style="edgeStyle=none;rounded=0;orthogonalLoop=1;jettySize=auto;html=1;strokeColor=default;align=center;verticalAlign=middle;fontFamily=Times New Roman;fontSize=16;fontColor=default;labelBackgroundColor=default;endArrow=blockThin;endFill=1;endSize=6;" edge="1" parent="gSltfRQLhsjH3o0JYE8w-69" source="gSltfRQLhsjH3o0JYE8w-79" target="gSltfRQLhsjH3o0JYE8w-73">
          <mxGeometry relative="1" as="geometry" />
        </mxCell>
        <mxCell id="gSltfRQLhsjH3o0JYE8w-79" value="&lt;font color=&quot;#ff0000&quot; style=&quot;font-size: 16px;&quot;&gt;CcspBaseIf_setParameterValues&lt;/font&gt;&lt;div&gt;&lt;font style=&quot;font-size: 16px;&quot;&gt;(...&lt;/font&gt;&lt;span style=&quot;background-color: initial;&quot;&gt;)&lt;/span&gt;&lt;/div&gt;" style="rounded=1;whiteSpace=wrap;html=1;align=center;verticalAlign=middle;fontFamily=Times New Roman;fontSize=16;fontColor=default;fillColor=none;gradientColor=none;" vertex="1" parent="gSltfRQLhsjH3o0JYE8w-69">
          <mxGeometry x="639.995" y="1040" width="258.75" height="60" as="geometry" />
        </mxCell>
        <mxCell id="gSltfRQLhsjH3o0JYE8w-80" value="" style="edgeStyle=none;rounded=0;orthogonalLoop=1;jettySize=auto;html=1;strokeColor=default;align=center;verticalAlign=middle;fontFamily=Times New Roman;fontSize=16;fontColor=default;labelBackgroundColor=default;endArrow=blockThin;endFill=1;endSize=6;" edge="1" parent="gSltfRQLhsjH3o0JYE8w-69" source="gSltfRQLhsjH3o0JYE8w-81" target="gSltfRQLhsjH3o0JYE8w-86">
          <mxGeometry relative="1" as="geometry" />
        </mxCell>
        <mxCell id="gSltfRQLhsjH3o0JYE8w-81" value="Infinite Loop" style="rhombus;whiteSpace=wrap;html=1;fontFamily=Times New Roman;fontSize=16;fontColor=default;labelBackgroundColor=default;fillColor=none;" vertex="1" parent="gSltfRQLhsjH3o0JYE8w-69">
          <mxGeometry x="101.59" y="250" width="148.93" height="80" as="geometry" />
        </mxCell>
        <mxCell id="gSltfRQLhsjH3o0JYE8w-82" value="" style="edgeStyle=none;rounded=0;orthogonalLoop=1;jettySize=auto;html=1;strokeColor=default;align=center;verticalAlign=middle;fontFamily=Times New Roman;fontSize=16;fontColor=default;labelBackgroundColor=default;endArrow=blockThin;endFill=1;endSize=6;" edge="1" parent="gSltfRQLhsjH3o0JYE8w-69" source="gSltfRQLhsjH3o0JYE8w-83" target="gSltfRQLhsjH3o0JYE8w-81">
          <mxGeometry relative="1" as="geometry" />
        </mxCell>
        <mxCell id="gSltfRQLhsjH3o0JYE8w-83" value="&lt;font color=&quot;#00cc00&quot; style=&quot;font-size: 16px;&quot;&gt;LANStatusMonitorThread&lt;/font&gt;&lt;div&gt;&lt;font style=&quot;font-size: 16px;&quot;&gt;(&lt;b style=&quot;&quot;&gt;&lt;font color=&quot;#00cc00&quot;&gt;void&lt;/font&gt;&lt;/b&gt;)&lt;/font&gt;&lt;/div&gt;" style="rounded=1;whiteSpace=wrap;html=1;align=center;verticalAlign=middle;fontFamily=Times New Roman;fontSize=16;fontColor=default;fillColor=none;gradientColor=none;" vertex="1" parent="gSltfRQLhsjH3o0JYE8w-69">
          <mxGeometry x="80" y="150" width="192.11" height="60" as="geometry" />
        </mxCell>
        <mxCell id="gSltfRQLhsjH3o0JYE8w-84" value="" style="edgeStyle=none;rounded=0;orthogonalLoop=1;jettySize=auto;html=1;strokeColor=default;align=center;verticalAlign=middle;fontFamily=Times New Roman;fontSize=16;fontColor=default;labelBackgroundColor=default;endArrow=blockThin;endFill=1;endSize=6;" edge="1" parent="gSltfRQLhsjH3o0JYE8w-69" source="gSltfRQLhsjH3o0JYE8w-86" target="gSltfRQLhsjH3o0JYE8w-89">
          <mxGeometry relative="1" as="geometry" />
        </mxCell>
        <mxCell id="gSltfRQLhsjH3o0JYE8w-85" style="edgeStyle=none;rounded=0;orthogonalLoop=1;jettySize=auto;html=1;exitX=1;exitY=0.5;exitDx=0;exitDy=0;strokeColor=default;align=center;verticalAlign=middle;fontFamily=Times New Roman;fontSize=16;fontColor=default;labelBackgroundColor=default;endArrow=blockThin;endFill=1;endSize=6;" edge="1" parent="gSltfRQLhsjH3o0JYE8w-69" source="gSltfRQLhsjH3o0JYE8w-86" target="gSltfRQLhsjH3o0JYE8w-102">
          <mxGeometry relative="1" as="geometry" />
        </mxCell>
        <mxCell id="gSltfRQLhsjH3o0JYE8w-86" value="&lt;div style=&quot;font-size: 14px;&quot;&gt;&lt;span style=&quot;background-color: initial;&quot;&gt;Lan is Connected&lt;br&gt;Lan LED is&amp;nbsp;&lt;/span&gt;&lt;span style=&quot;background-color: initial;&quot;&gt;Green&lt;/span&gt;&lt;/div&gt;" style="rhombus;whiteSpace=wrap;html=1;rounded=0;strokeColor=default;align=center;verticalAlign=middle;fontFamily=Times New Roman;fontSize=16;fontColor=default;fillColor=none;gradientColor=none;" vertex="1" parent="gSltfRQLhsjH3o0JYE8w-69">
          <mxGeometry x="94.51" y="370" width="163.1" height="80" as="geometry" />
        </mxCell>
        <mxCell id="gSltfRQLhsjH3o0JYE8w-87" value="" style="edgeStyle=none;rounded=0;orthogonalLoop=1;jettySize=auto;html=1;strokeColor=default;align=center;verticalAlign=middle;fontFamily=Times New Roman;fontSize=16;fontColor=default;labelBackgroundColor=default;endArrow=blockThin;endFill=1;endSize=6;" edge="1" parent="gSltfRQLhsjH3o0JYE8w-69" source="gSltfRQLhsjH3o0JYE8w-89" target="gSltfRQLhsjH3o0JYE8w-92">
          <mxGeometry relative="1" as="geometry" />
        </mxCell>
        <mxCell id="gSltfRQLhsjH3o0JYE8w-88" value="" style="edgeStyle=none;rounded=0;orthogonalLoop=1;jettySize=auto;html=1;strokeColor=default;align=center;verticalAlign=middle;fontFamily=Times New Roman;fontSize=16;fontColor=default;labelBackgroundColor=default;endArrow=blockThin;endFill=1;endSize=6;" edge="1" parent="gSltfRQLhsjH3o0JYE8w-69" source="gSltfRQLhsjH3o0JYE8w-89" target="gSltfRQLhsjH3o0JYE8w-104">
          <mxGeometry relative="1" as="geometry" />
        </mxCell>
        <mxCell id="gSltfRQLhsjH3o0JYE8w-89" value="&lt;div style=&quot;font-size: 14px;&quot;&gt;&lt;span style=&quot;background-color: initial;&quot;&gt;Lan is Disconnected&lt;br&gt;Lan LED is&amp;nbsp;&lt;/span&gt;&lt;span style=&quot;background-color: initial;&quot;&gt;Red&lt;/span&gt;&lt;/div&gt;" style="rhombus;whiteSpace=wrap;html=1;rounded=0;strokeColor=default;align=center;verticalAlign=middle;fontFamily=Times New Roman;fontSize=16;fontColor=default;fillColor=none;gradientColor=none;" vertex="1" parent="gSltfRQLhsjH3o0JYE8w-69">
          <mxGeometry x="82.25" y="490" width="187.61" height="80" as="geometry" />
        </mxCell>
        <mxCell id="gSltfRQLhsjH3o0JYE8w-90" value="" style="edgeStyle=none;rounded=0;orthogonalLoop=1;jettySize=auto;html=1;strokeColor=default;align=center;verticalAlign=middle;fontFamily=Times New Roman;fontSize=16;fontColor=default;labelBackgroundColor=default;endArrow=blockThin;endFill=1;endSize=6;" edge="1" parent="gSltfRQLhsjH3o0JYE8w-69" source="gSltfRQLhsjH3o0JYE8w-92" target="gSltfRQLhsjH3o0JYE8w-95">
          <mxGeometry relative="1" as="geometry" />
        </mxCell>
        <mxCell id="gSltfRQLhsjH3o0JYE8w-91" value="" style="edgeStyle=none;rounded=0;orthogonalLoop=1;jettySize=auto;html=1;strokeColor=default;align=center;verticalAlign=middle;fontFamily=Times New Roman;fontSize=16;fontColor=default;labelBackgroundColor=default;endArrow=blockThin;endFill=1;endSize=6;" edge="1" parent="gSltfRQLhsjH3o0JYE8w-69" source="gSltfRQLhsjH3o0JYE8w-92" target="gSltfRQLhsjH3o0JYE8w-106">
          <mxGeometry relative="1" as="geometry" />
        </mxCell>
        <mxCell id="gSltfRQLhsjH3o0JYE8w-92" value="&lt;div style=&quot;font-size: 14px;&quot;&gt;&lt;span style=&quot;background-color: initial;&quot;&gt;Lan is Connected&lt;br&gt;Lan LED is not Blink&lt;/span&gt;&lt;/div&gt;" style="rhombus;whiteSpace=wrap;html=1;rounded=0;strokeColor=default;align=center;verticalAlign=middle;fontFamily=Times New Roman;fontSize=16;fontColor=default;fillColor=none;gradientColor=none;" vertex="1" parent="gSltfRQLhsjH3o0JYE8w-69">
          <mxGeometry x="82.25" y="610" width="187.61" height="80" as="geometry" />
        </mxCell>
        <mxCell id="gSltfRQLhsjH3o0JYE8w-93" style="edgeStyle=none;rounded=0;orthogonalLoop=1;jettySize=auto;html=1;strokeColor=default;align=center;verticalAlign=middle;fontFamily=Times New Roman;fontSize=16;fontColor=default;labelBackgroundColor=default;endArrow=blockThin;endFill=1;endSize=6;entryX=0;entryY=0.5;entryDx=0;entryDy=0;exitX=0.5;exitY=1;exitDx=0;exitDy=0;" edge="1" parent="gSltfRQLhsjH3o0JYE8w-69" source="gSltfRQLhsjH3o0JYE8w-95" target="gSltfRQLhsjH3o0JYE8w-81">
          <mxGeometry relative="1" as="geometry">
            <mxPoint x="156.06000000000006" y="790" as="sourcePoint" />
            <mxPoint x="60" y="180" as="targetPoint" />
            <Array as="points">
              <mxPoint x="176" y="850" />
              <mxPoint x="60" y="850" />
              <mxPoint x="60" y="510" />
              <mxPoint x="60" y="290" />
            </Array>
          </mxGeometry>
        </mxCell>
        <mxCell id="gSltfRQLhsjH3o0JYE8w-94" value="" style="edgeStyle=none;rounded=0;orthogonalLoop=1;jettySize=auto;html=1;strokeColor=default;align=center;verticalAlign=middle;fontFamily=Times New Roman;fontSize=16;fontColor=default;labelBackgroundColor=default;endArrow=blockThin;endFill=1;endSize=6;" edge="1" parent="gSltfRQLhsjH3o0JYE8w-69" source="gSltfRQLhsjH3o0JYE8w-95" target="gSltfRQLhsjH3o0JYE8w-108">
          <mxGeometry relative="1" as="geometry" />
        </mxCell>
        <mxCell id="gSltfRQLhsjH3o0JYE8w-95" value="&lt;div style=&quot;font-size: 14px;&quot;&gt;&lt;span style=&quot;background-color: initial;&quot;&gt;Lan is Connected&lt;br&gt;Lan LED is&amp;nbsp;&lt;/span&gt;&lt;span style=&quot;background-color: initial;&quot;&gt;Blink&lt;/span&gt;&lt;/div&gt;" style="rhombus;whiteSpace=wrap;html=1;rounded=0;strokeColor=default;align=center;verticalAlign=middle;fontFamily=Times New Roman;fontSize=16;fontColor=default;fillColor=none;gradientColor=none;" vertex="1" parent="gSltfRQLhsjH3o0JYE8w-69">
          <mxGeometry x="94.51" y="730" width="163.1" height="80" as="geometry" />
        </mxCell>
        <mxCell id="gSltfRQLhsjH3o0JYE8w-96" value="&lt;font style=&quot;font-size: 14px;&quot;&gt;False&lt;/font&gt;" style="text;html=1;align=center;verticalAlign=middle;whiteSpace=wrap;rounded=0;fontFamily=Times New Roman;fontSize=16;fontColor=default;" vertex="1" parent="gSltfRQLhsjH3o0JYE8w-69">
          <mxGeometry x="170" y="690" width="60" height="30" as="geometry" />
        </mxCell>
        <mxCell id="gSltfRQLhsjH3o0JYE8w-97" value="&lt;font style=&quot;font-size: 14px;&quot;&gt;False&lt;/font&gt;" style="text;html=1;align=center;verticalAlign=middle;whiteSpace=wrap;rounded=0;fontFamily=Times New Roman;fontSize=16;fontColor=default;" vertex="1" parent="gSltfRQLhsjH3o0JYE8w-69">
          <mxGeometry x="170" y="570" width="60" height="30" as="geometry" />
        </mxCell>
        <mxCell id="gSltfRQLhsjH3o0JYE8w-98" value="&lt;font style=&quot;font-size: 14px;&quot;&gt;False&lt;/font&gt;" style="text;html=1;align=center;verticalAlign=middle;whiteSpace=wrap;rounded=0;fontFamily=Times New Roman;fontSize=16;fontColor=default;" vertex="1" parent="gSltfRQLhsjH3o0JYE8w-69">
          <mxGeometry x="170" y="450" width="60" height="30" as="geometry" />
        </mxCell>
        <mxCell id="gSltfRQLhsjH3o0JYE8w-99" value="&lt;font style=&quot;font-size: 14px;&quot;&gt;True&lt;/font&gt;" style="text;html=1;align=center;verticalAlign=middle;whiteSpace=wrap;rounded=0;fontFamily=Times New Roman;fontSize=16;fontColor=default;" vertex="1" parent="gSltfRQLhsjH3o0JYE8w-69">
          <mxGeometry x="170" y="330" width="60" height="30" as="geometry" />
        </mxCell>
        <mxCell id="gSltfRQLhsjH3o0JYE8w-100" value="&lt;font style=&quot;font-size: 14px;&quot;&gt;False&lt;/font&gt;" style="text;html=1;align=center;verticalAlign=middle;whiteSpace=wrap;rounded=0;fontFamily=Times New Roman;fontSize=16;fontColor=default;" vertex="1" parent="gSltfRQLhsjH3o0JYE8w-69">
          <mxGeometry x="170" y="810" width="60" height="30" as="geometry" />
        </mxCell>
        <mxCell id="gSltfRQLhsjH3o0JYE8w-101" style="edgeStyle=none;rounded=0;orthogonalLoop=1;jettySize=auto;html=1;exitX=1;exitY=0.5;exitDx=0;exitDy=0;entryX=0;entryY=0.5;entryDx=0;entryDy=0;strokeColor=default;align=center;verticalAlign=middle;fontFamily=Times New Roman;fontSize=16;fontColor=default;labelBackgroundColor=default;endArrow=blockThin;endFill=1;endSize=6;" edge="1" parent="gSltfRQLhsjH3o0JYE8w-69" source="gSltfRQLhsjH3o0JYE8w-102" target="gSltfRQLhsjH3o0JYE8w-77">
          <mxGeometry relative="1" as="geometry">
            <Array as="points">
              <mxPoint x="540" y="410" />
              <mxPoint x="540" y="850" />
            </Array>
          </mxGeometry>
        </mxCell>
        <mxCell id="gSltfRQLhsjH3o0JYE8w-102" value="&lt;b style=&quot;&quot;&gt;&lt;font color=&quot;#6666ff&quot;&gt;event_name=LAN_PORT&lt;/font&gt;&lt;/b&gt;&lt;div&gt;&lt;font color=&quot;#00cc00&quot;&gt;&lt;b&gt;new_value=UP&lt;/b&gt;&lt;/font&gt;&lt;/div&gt;" style="rounded=0;whiteSpace=wrap;html=1;strokeColor=default;align=center;verticalAlign=middle;fontFamily=Times New Roman;fontSize=16;fontColor=default;fillColor=none;gradientColor=none;" vertex="1" parent="gSltfRQLhsjH3o0JYE8w-69">
          <mxGeometry x="300" y="380" width="190" height="60" as="geometry" />
        </mxCell>
        <mxCell id="gSltfRQLhsjH3o0JYE8w-103" style="edgeStyle=none;rounded=0;orthogonalLoop=1;jettySize=auto;html=1;exitX=1;exitY=0.5;exitDx=0;exitDy=0;entryX=0;entryY=0.5;entryDx=0;entryDy=0;strokeColor=default;align=center;verticalAlign=middle;fontFamily=Times New Roman;fontSize=16;fontColor=default;labelBackgroundColor=default;endArrow=blockThin;endFill=1;endSize=6;" edge="1" parent="gSltfRQLhsjH3o0JYE8w-69" source="gSltfRQLhsjH3o0JYE8w-104" target="gSltfRQLhsjH3o0JYE8w-77">
          <mxGeometry relative="1" as="geometry">
            <Array as="points">
              <mxPoint x="540" y="530" />
              <mxPoint x="540" y="850" />
            </Array>
          </mxGeometry>
        </mxCell>
        <mxCell id="gSltfRQLhsjH3o0JYE8w-104" value="&lt;b style=&quot;&quot;&gt;&lt;font color=&quot;#6666ff&quot;&gt;event_name=LAN_PORT&lt;/font&gt;&lt;/b&gt;&lt;div&gt;&lt;font color=&quot;#00cc00&quot;&gt;&lt;b&gt;new_value=DOWN&lt;/b&gt;&lt;/font&gt;&lt;/div&gt;" style="rounded=0;whiteSpace=wrap;html=1;strokeColor=default;align=center;verticalAlign=middle;fontFamily=Times New Roman;fontSize=16;fontColor=default;fillColor=none;gradientColor=none;" vertex="1" parent="gSltfRQLhsjH3o0JYE8w-69">
          <mxGeometry x="300" y="500" width="190" height="60" as="geometry" />
        </mxCell>
        <mxCell id="gSltfRQLhsjH3o0JYE8w-105" style="edgeStyle=none;rounded=0;orthogonalLoop=1;jettySize=auto;html=1;exitX=1;exitY=0.5;exitDx=0;exitDy=0;entryX=0;entryY=0.5;entryDx=0;entryDy=0;strokeColor=default;align=center;verticalAlign=middle;fontFamily=Times New Roman;fontSize=16;fontColor=default;labelBackgroundColor=default;endArrow=blockThin;endFill=1;endSize=6;" edge="1" parent="gSltfRQLhsjH3o0JYE8w-69" source="gSltfRQLhsjH3o0JYE8w-106" target="gSltfRQLhsjH3o0JYE8w-77">
          <mxGeometry relative="1" as="geometry">
            <Array as="points">
              <mxPoint x="540" y="650" />
              <mxPoint x="540" y="850" />
            </Array>
          </mxGeometry>
        </mxCell>
        <mxCell id="gSltfRQLhsjH3o0JYE8w-106" value="&lt;b style=&quot;&quot;&gt;&lt;font color=&quot;#6666ff&quot;&gt;event_name=LAN_PORT&lt;/font&gt;&lt;/b&gt;&lt;div&gt;&lt;font color=&quot;#00cc00&quot;&gt;&lt;b&gt;new_value=Activity&lt;/b&gt;&lt;/font&gt;&lt;/div&gt;" style="rounded=0;whiteSpace=wrap;html=1;strokeColor=default;align=center;verticalAlign=middle;fontFamily=Times New Roman;fontSize=16;fontColor=default;fillColor=none;gradientColor=none;" vertex="1" parent="gSltfRQLhsjH3o0JYE8w-69">
          <mxGeometry x="300" y="620" width="190" height="60" as="geometry" />
        </mxCell>
        <mxCell id="gSltfRQLhsjH3o0JYE8w-107" style="edgeStyle=none;rounded=0;orthogonalLoop=1;jettySize=auto;html=1;exitX=1;exitY=0.5;exitDx=0;exitDy=0;entryX=0;entryY=0.5;entryDx=0;entryDy=0;strokeColor=default;align=center;verticalAlign=middle;fontFamily=Times New Roman;fontSize=16;fontColor=default;labelBackgroundColor=default;endArrow=blockThin;endFill=1;endSize=6;" edge="1" parent="gSltfRQLhsjH3o0JYE8w-69" source="gSltfRQLhsjH3o0JYE8w-108" target="gSltfRQLhsjH3o0JYE8w-77">
          <mxGeometry relative="1" as="geometry">
            <Array as="points">
              <mxPoint x="540" y="770" />
              <mxPoint x="540" y="850" />
            </Array>
          </mxGeometry>
        </mxCell>
        <mxCell id="gSltfRQLhsjH3o0JYE8w-108" value="&lt;b style=&quot;&quot;&gt;&lt;font color=&quot;#6666ff&quot;&gt;event_name=LAN_PORT&lt;/font&gt;&lt;/b&gt;&lt;div&gt;&lt;font color=&quot;#00cc00&quot;&gt;&lt;b&gt;new_value=UP&lt;/b&gt;&lt;/font&gt;&lt;/div&gt;" style="rounded=0;whiteSpace=wrap;html=1;strokeColor=default;align=center;verticalAlign=middle;fontFamily=Times New Roman;fontSize=16;fontColor=default;fillColor=none;gradientColor=none;" vertex="1" parent="gSltfRQLhsjH3o0JYE8w-69">
          <mxGeometry x="300" y="740" width="190" height="60" as="geometry" />
        </mxCell>
        <mxCell id="gSltfRQLhsjH3o0JYE8w-109" value="&lt;font style=&quot;font-size: 14px;&quot;&gt;True&lt;/font&gt;" style="text;html=1;align=center;verticalAlign=middle;whiteSpace=wrap;rounded=0;fontFamily=Times New Roman;fontSize=16;fontColor=default;" vertex="1" parent="gSltfRQLhsjH3o0JYE8w-69">
          <mxGeometry x="250.51999999999998" y="380" width="60" height="30" as="geometry" />
        </mxCell>
        <mxCell id="gSltfRQLhsjH3o0JYE8w-110" value="&lt;font style=&quot;font-size: 14px;&quot;&gt;True&lt;/font&gt;" style="text;html=1;align=center;verticalAlign=middle;whiteSpace=wrap;rounded=0;fontFamily=Times New Roman;fontSize=16;fontColor=default;" vertex="1" parent="gSltfRQLhsjH3o0JYE8w-69">
          <mxGeometry x="250.52" y="500" width="60" height="30" as="geometry" />
        </mxCell>
        <mxCell id="gSltfRQLhsjH3o0JYE8w-111" value="&lt;font style=&quot;font-size: 14px;&quot;&gt;True&lt;/font&gt;" style="text;html=1;align=center;verticalAlign=middle;whiteSpace=wrap;rounded=0;fontFamily=Times New Roman;fontSize=16;fontColor=default;" vertex="1" parent="gSltfRQLhsjH3o0JYE8w-69">
          <mxGeometry x="250.52" y="620" width="60" height="30" as="geometry" />
        </mxCell>
        <mxCell id="gSltfRQLhsjH3o0JYE8w-112" value="&lt;font style=&quot;font-size: 14px;&quot;&gt;True&lt;/font&gt;" style="text;html=1;align=center;verticalAlign=middle;whiteSpace=wrap;rounded=0;fontFamily=Times New Roman;fontSize=16;fontColor=default;" vertex="1" parent="gSltfRQLhsjH3o0JYE8w-69">
          <mxGeometry x="250.52" y="740" width="60" height="30" as="geometry" />
        </mxCell>
        <mxCell id="gSltfRQLhsjH3o0JYE8w-113" style="edgeStyle=none;rounded=0;orthogonalLoop=1;jettySize=auto;html=1;exitX=0.5;exitY=1;exitDx=0;exitDy=0;entryX=0.5;entryY=0;entryDx=0;entryDy=0;strokeColor=default;align=center;verticalAlign=middle;fontFamily=Times New Roman;fontSize=16;fontColor=default;labelBackgroundColor=default;endArrow=blockThin;endFill=1;endSize=6;" edge="1" parent="gSltfRQLhsjH3o0JYE8w-69" source="gSltfRQLhsjH3o0JYE8w-114" target="gSltfRQLhsjH3o0JYE8w-79">
          <mxGeometry relative="1" as="geometry" />
        </mxCell>
        <mxCell id="gSltfRQLhsjH3o0JYE8w-114" value="Data Model" style="swimlane;fontStyle=0;childLayout=stackLayout;horizontal=1;startSize=30;horizontalStack=0;resizeParent=1;resizeParentMax=0;resizeLast=0;collapsible=1;marginBottom=0;whiteSpace=wrap;html=1;rounded=0;strokeColor=default;align=center;verticalAlign=middle;fontFamily=Times New Roman;fontSize=16;fontColor=default;fillColor=none;gradientColor=none;" vertex="1" collapsed="1" parent="gSltfRQLhsjH3o0JYE8w-69">
          <mxGeometry x="639.99" y="910" width="260" height="30" as="geometry">
            <mxRectangle x="639.99" y="910" width="330" height="120" as="alternateBounds" />
          </mxGeometry>
        </mxCell>
        <mxCell id="gSltfRQLhsjH3o0JYE8w-115" value="Device.NotifyComponent.SetNotifi_ParamName" style="text;strokeColor=none;fillColor=none;align=left;verticalAlign=middle;spacingLeft=4;spacingRight=4;overflow=hidden;points=[[0,0.5],[1,0.5]];portConstraint=eastwest;rotatable=0;whiteSpace=wrap;html=1;fontFamily=Times New Roman;fontSize=16;fontColor=default;" vertex="1" parent="gSltfRQLhsjH3o0JYE8w-114">
          <mxGeometry y="30" width="330" height="30" as="geometry" />
        </mxCell>
        <mxCell id="gSltfRQLhsjH3o0JYE8w-116" value="eRT.com.cisco.spvtg.ccsp.notifycomponent" style="text;strokeColor=none;fillColor=none;align=left;verticalAlign=middle;spacingLeft=4;spacingRight=4;overflow=hidden;points=[[0,0.5],[1,0.5]];portConstraint=eastwest;rotatable=0;whiteSpace=wrap;html=1;fontFamily=Times New Roman;fontSize=16;fontColor=default;" vertex="1" parent="gSltfRQLhsjH3o0JYE8w-114">
          <mxGeometry y="60" width="330" height="30" as="geometry" />
        </mxCell>
        <mxCell id="gSltfRQLhsjH3o0JYE8w-117" value="/com/cisco/spvtg/ccsp/notifycomponent" style="text;strokeColor=none;fillColor=none;align=left;verticalAlign=middle;spacingLeft=4;spacingRight=4;overflow=hidden;points=[[0,0.5],[1,0.5]];portConstraint=eastwest;rotatable=0;whiteSpace=wrap;html=1;fontFamily=Times New Roman;fontSize=16;fontColor=default;" vertex="1" parent="gSltfRQLhsjH3o0JYE8w-114">
          <mxGeometry y="90" width="330" height="30" as="geometry" />
        </mxCell>
      </root>
    </mxGraphModel>
  </diagram>
</mxfile>
